<?xml version="1.0" encoding="UTF-8"?><svg version="1.1" width="300px" height="300px" viewBox="0 0 300.0 300.0" xmlns="http://www.w3.org/2000/svg" xmlns:xlink="http://www.w3.org/1999/xlink"><defs><clipPath id="i0"><path d="M150,0 C232.842712,0 300,67.1326632 300,149.945 C300,232.757337 232.842712,299.89 150,299.89 C67.1572875,299.89 0,232.757337 0,149.945 C0,67.1326632 67.1572875,0 150,0 Z"></path></clipPath><clipPath id="i1"><path d="M149.397982,0.000726214075 L151.88854,0.0135939349 C215.079256,0.884366572 270.917176,41.3419722 291.428123,101.117601 C293.756795,107.892694 292.535547,115.383911 288.175631,121.068604 C273.38062,140.349706 254.736741,156.385463 236.341012,169.717108 L236.341012,79.2140815 C236.340448,72.1826773 230.64021,66.482897 223.608806,66.482897 L202.390506,66.482897 C199.014079,66.482897 195.775958,67.8242469 193.38856,70.2118365 C191.001162,72.5994261 189.660071,75.8376554 189.660342,79.2140815 L189.660342,189.121774 C189.656822,193.388424 187.102229,197.239413 183.172718,198.901717 C183.07505,198.942931 182.977334,198.984132 182.879607,199.025308 L182.000753,199.394796 C177.22501,201.398417 172.68611,203.236672 172.68611,203.236672 L172.68611,111.044596 C172.684983,104.013824 166.985698,98.3145389 159.954926,98.3134113 L138.736625,98.3134113 C135.359564,98.3136821 132.120925,99.6554744 129.733173,102.043609 C127.345422,104.431744 126.004149,107.670598 126.00442,111.047659 L126.00442,210.374795 C126.003135,215.296752 122.616764,219.571469 117.825703,220.699033 C114.474155,221.485349 111.414668,222.238988 109.029167,222.945652 L109.029167,142.870004 C109.029167,135.838765 103.329221,130.13882 96.297982,130.13882 L75.1215503,130.069379 C71.73903,130.053621 68.4896715,131.38643 66.0924822,133.772886 C63.6952929,136.159343 62.3479169,139.402688 62.348497,142.785245 L62.3536029,222.258391 C62.3481982,227.646342 58.3028595,232.173572 52.9494577,232.782782 C47.0081702,233.480256 42.0104629,233.979618 37.9961622,234.33295 C30.6607178,234.988796 23.6094885,231.335951 19.9139384,224.965567 C6.78832845,202.152634 -0.0809380003,176.278397 0,149.95911 C-0.00744991588,66.7841482 68.7237906,-1.1035887 151.88854,0.0135939349 Z"></path></clipPath><clipPath id="i2"><path d="M237.722984,0 C237.953774,3.3954591 238.114102,6.80929963 238.114102,10.2619454 C238.123123,66.658074 206.481948,118.288012 156.22687,143.880014 C105.971792,169.472016 45.6062215,164.695786 0,131.519151 C81.8014603,119.887789 182.944273,81.6952565 237.722984,0 Z"></path></clipPath></defs><g transform=""><g clip-path="url(#i0)"><polygon points="0,0 300,0 300,299.89 0,299.89 0,0" stroke="none" fill="#FFFFFF"></polygon></g></g><g clip-path="url(#i1)"><polygon points="-0.00070705436,-7.00828284e-16 292.588733,-7.00828284e-16 292.588733,234.408539 -0.00070705436,234.408539 -0.00070705436,-7.00828284e-16" stroke="none" fill="#20325B"></polygon></g><g transform="translate(61.88589758341833 139.68899512795105)"><g clip-path="url(#i2)"><polygon points="0,0 238.114104,0 238.114104,160.205551 0,160.205551 0,0" stroke="none" fill="#979695"></polygon></g></g></svg>
